<?xml version="1.0" standalone="no"?>
<!DOCTYPE svg PUBLIC "-//W3C//DTD SVG 20010904//EN"
 "http://www.w3.org/TR/2001/REC-SVG-20010904/DTD/svg10.dtd">
<svg version="1.0" xmlns="http://www.w3.org/2000/svg"
 width="252.000000pt" height="252.000000pt" viewBox="0 0 252.000000 252.000000"
 preserveAspectRatio="xMidYMid meet">
<metadata>
Created by potrace 1.11, written by Peter Selinger 2001-2013
</metadata>
<g transform="translate(0.000000,252.000000) scale(0.100000,-0.100000)"
fill="#000000" stroke="none">
<path d="M685 2409 c-17 -5 -50 -25 -73 -44 -45 -39 -72 -105 -72 -175 0 -65
-45 -134 -185 -281 -73 -76 -149 -163 -169 -194 -70 -105 -70 -103 -74 -483
l-3 -343 25 -54 c17 -38 37 -62 67 -82 l42 -28 294 -3 293 -3 0 -197 c0 -113
5 -214 11 -237 15 -52 82 -119 134 -134 56 -15 1214 -15 1270 0 54 15 120 82
135 137 8 30 10 147 8 380 l-3 337 -27 58 c-36 77 -68 117 -213 267 -138 144
-173 200 -187 303 -11 80 -24 110 -65 151 -40 41 -83 56 -158 56 l-65 0 0 198
c0 113 -5 214 -11 237 -15 52 -82 119 -134 134 -48 13 -794 14 -840 0z m840
-134 l25 -24 0 -680 0 -680 -24 -28 -24 -28 -612 0 -612 0 -24 28 -25 29 3
336 c4 406 -7 371 177 566 69 72 143 157 167 188 45 62 84 161 84 216 0 37 15
70 39 89 12 9 116 12 409 13 l393 0 24 -25z m292 -579 c16 -19 23 -40 23 -67
0 -57 36 -156 78 -215 21 -28 91 -108 157 -177 66 -69 136 -151 155 -183 l35
-58 3 -343 3 -343 -25 -25 -25 -25 -611 0 -611 0 -24 25 c-25 24 -25 25 -25
229 l0 205 293 3 294 3 42 28 c29 20 50 44 67 80 l24 52 0 424 0 423 62 -4
c51 -4 65 -9 85 -32z"/>
<path d="M417 1102 c-10 -10 -17 -28 -17 -40 0 -55 81 -71 109 -21 13 24 13
29 -2 53 -21 31 -66 35 -90 8z"/>
<path d="M1273 1094 c-15 -24 -15 -29 -2 -53 28 -50 109 -34 109 23 0 55 -76
76 -107 30z"/>
<path d="M1140 530 c-38 -38 -14 -100 38 -100 25 0 62 33 62 55 0 20 -45 65
-65 65 -8 0 -24 -9 -35 -20z"/>
<path d="M2005 526 c-30 -30 -32 -49 -5 -76 51 -51 132 15 88 72 -24 30 -56
31 -83 4z"/>
</g>
</svg>
